<svg height="166" viewBox="0 0 250 166" width="250" xmlns="http://www.w3.org/2000/svg"><g fill="none" fill-rule="evenodd"><path d="m0 0h250v166h-250z" fill="#e6ecfe"/><g fill-rule="nonzero" transform="translate(5 9)"><path d="m18.0342713 141.912278c-3.1684788-.859135-4.5205899 3.863873-1.3601033 4.750452 3.1683313.8591 4.5204424-3.863906 1.3601033-4.750452z" fill="#3f3d56"/><path d="m35.8842713 148.853945c-3.1684788-.859135-4.5205899 3.863873-1.3601033 4.750451 3.1683313.859101 4.5204424-3.863907 1.3601033-4.750451z" fill="#3f3d56"/><path d="m42.4071483 97.1673016-.0510771-.0137988-8.5092024 22.2015242-1.1218688-.303051 8.5702316-22.3607666c.0382348-.7100605.5860115-1.2986263 1.3160427-1.4140393 4.2554486-.6466875 5.9803924 2.9836096 5.9803924 2.9836096l-.0170257.0241349-8.6996713 22.6984184-1.1218636-.303033 8.4436573-22.0305511c-2.5705321-2.4433841-4.7896151-1.4824473-4.7896151-1.4824473z" fill="#3f3d56"/><path d="m33.1796633 149.741139c-4.9786731-.075227-11.1353785-2.73948-15.3331723-4.736744-2.2957013-1.089771-3.4662412-3.657658-2.7731249-6.083578l5.4404008-19.168068c.4906264-1.716677 1.6710422-3.158797 3.2654511-3.989417 1.5475251-.814976 3.368054-.95422 5.0235914-.384233.1942622.086501 5.4795374 1.551376 8.9769639 2.520672 2.0574518.570265 3.5440349.982337 3.6435665 1.015456.0823675.026955 3.7798354 1.285002 3.123667 5.708861-.5039778 3.397657-4.3075638 15.917514-5.9195616 21.14278-.7188552 2.343804-2.8916708 3.953569-5.3650702 3.974799-.0273868 0-.0552291 0-.0827117-.000528z" fill="#6c63ff"/><path d="m18.1952129 141.808333 6.9689534-23.361111 16.3878955 4.586673.0979382-.342905-16.7302956-4.682657-.0503755.16892-7.0193289 23.530032z" fill="#3f3d56"/><path d="m95.2 3.966667h142.8v67.433333h-142.8z" fill="#e5e5e5"/><path d="m99.166667 9.916667h134.866667v56.525h-134.866667z" fill="#fff"/><path d="m95.2 0h142.8v5.95h-142.8z" fill="#6c63ff"/><circle cx="100.158333" cy="2.975" fill="#fff" r="1"/><circle cx="104.125" cy="2.975" fill="#fff" r="1"/><circle cx="108.091667" cy="2.975" fill="#fff" r="1"/><path d="m163.625 37.1889922c.003162 2.5413927-.449996 5.0627065-1.337918 7.443918-.403207 1.0906828-.897834 2.1453482-1.478603 3.1527445-3.800392 6.6319223-10.859144 10.7226786-18.502379 10.7226786s-14.701987-4.0907563-18.502379-10.7226786c-.189003-.3276665-.368231-.6602345-.537683-.997704-3.968418-7.872577-2.682757-17.3758248 3.234803-23.9107702 5.917561-6.5349454 15.24651-8.7537397 23.472224-5.5826261 8.225714 3.1711135 13.651935 11.0780848 13.651935 19.8944378z" fill="#f1f1f1"/><circle cx="142.8" cy="36.691667" fill="#6c63ff" r="3.966667"/><path d="m121.975 46.5992912c1.825446-1.9466404 4.265782-5.0372501 6.554531-2.8040888 1.148644 1.0533769 2.946336 3.6636463 4.667168 1.9571735l13.437853-13.2599103c.511065-.4978757 1.203975-.7713979 1.922028-.7587097.718053.0126881 1.400593.3105147 1.893266.8261266l11.191821 11.8778776c-.409906 1.0939554-.912712 2.1517948-1.50306 3.1622399h-37.617041z" fill="#fff"/><path d="m206.822287 32.725c-.306861 0-.55562.2219921-.55562.4958333s.248759.4958334.55562.4958334h5.830426c.306861 0 .55562-.2219922.55562-.4958334s-.248759-.4958333-.55562-.4958333z" fill="#6c63ff"/><path d="m181.04434 24.7916667c-.200285-.0003789-.38554.094043-.485807.2476101-.100266.1535671-.100266.3428793 0 .4964464.100267.1535671.285522.247989.485807.2476101h32.597051c.308705-.0005868.558609-.2224068.558609-.4958333s-.249904-.4952465-.558609-.4958333z" fill="#e5e5e5"/><path d="m181.04434 28.7583333c-.200285-.0003788-.38554.0940431-.485807.2476102-.100266.1535671-.100266.3428793 0 .4964464.100267.1535671.285522.247989.485807.2476101h32.597051c.308705-.0005869.558609-.2224068.558609-.4958333s-.249904-.4952465-.558609-.4958334z" fill="#e5e5e5"/><path d="m206.821097 59.5c-.306395.0005869-.55443.2224068-.55443.4958333s.248035.4952465.55443.4958334h5.830426c.198787.0003788.382656-.0940431.482173-.2476102s.099517-.3428793 0-.4964464-.283386-.247989-.482173-.2476101z" fill="#6c63ff"/><g fill="#e5e5e5"><path d="m181.043141 51.5666667c-.309173 0-.559808.2219921-.559808.4958333s.250635.4958333.559808.4958333h32.597051c.309173 0 .559808-.2219921.559808-.4958333s-.250635-.4958333-.559808-.4958333z"/><path d="m181.04432 55.5333333c-.200278-.0003788-.385526.0940431-.485789.2476102s-.100263.3428793 0 .4964464.285511.247989.485789.2476101h32.595893c.309162 0 .559787-.2219928.559787-.4958333 0-.2738406-.250625-.4958334-.559787-.4958334z"/><path d="m200.779815 18.8442707h-1.827162l-1.56817-1.9859374h-.663508l.787485 1.9859374h-1.787496l-.733629-.6483181h-.620668l.309798 1.1993968-.309798 1.0484734h.620668l.733629-.6483205.011615-.017106h1.796674l-.808288 2.0382704h.663507l1.574657-1.9941392.018656-.0441312h1.802014c.291902 0 .528534-.2091106.528534-.4670616s-.236632-.4670616-.528534-.4670616z"/><path d="m199.317095 46.6083333h-2.959197c-.551779-.0005233-.998928-.3759908-.999565-.8393145v-2.2604274c-.002056-.3090744.243457-.580749.598509-.6622716 1.230206-.2736267 2.524167-.2728561 3.753909.0022358.358575.0797083.607688.352823.605916.664283v2.2561802c-.000633.4633272-.447789.8387962-.999572.8393145z"/></g><path d="m195.358333 43.633333h3.966667v1h-3.966667z" fill="#fff"/><circle cx="195.854167" cy="46.1125" fill="#fff" r="1"/><circle cx="198.829167" cy="46.1125" fill="#fff" r="1"/><path d="m199.325 48.6h-3.966667l.937949-1h2.090772zm-3.349858-.2857151h2.733045l-.401993-.4285758h-1.929064z" fill="#e5e5e5"/><path d="m200.076746 47.6h-4.478492c-.132505 0-.239921-.2219921-.239921-.4958333s.107416-.4958334.239921-.4958334h4.478492c.132505 0 .239921.2219922.239921.4958334s-.107416.4958333-.239921.4958333z" fill="#e5e5e5"/><path d="m47.3462653 98.8307072c.3233148-.6205702.3383534-1.3442304.041069-1.976255-.2972844-.6320247-.8763533-1.1074891-1.5813883-1.2984534l-.4765189-8.2893321-3.6794271 2.566233 1.0166086 7.4782586c-.2677957 1.1630123.4297445 2.3309823 1.6236515 2.7186627 1.193907.38768 2.5068035-.1274706 3.0560052-1.1991061z" fill="#ffb7b7"/><path d="m73.8291075 100.123707c-.4181547-.5732593-.5505022-1.2949958-.3614305-1.971005.1890716-.6760092.6801405-1.2368497 1.3410702-1.5316109l-.8792751-8.3627578 4.0282167 2.025997.2174166 7.6308079c.4518079 1.1240837-.0430143 2.3951298-1.1517899 2.9585938-1.1087755.563465-2.4810382.241245-3.1941945-.750025z" fill="#ffb7b7"/><path d="m53.5505033 150.733333 2.6873889-.000264 1.2787745-10.908069h-3.9666667z" fill="#ffb7b7"/><path d="m52.5583333 149.74191 5.4509783-.000243h.0002203c1.9184615.000106 3.4736683 1.719914 3.4738014 3.841466v.124834l-8.9248212.000366z" fill="#2f2e41"/><path d="m67.4333333 149.16753 2.584396.574137 3.365604-10.061239-3.8142358-.847095z" fill="#ffb7b7"/><path d="m66.2096545 147.758333 5.3884548 1.053102.0002174.000043c1.8964138.3708 3.1043071 2.073565 2.6980262 3.803404l-.0239142.101785-8.8224387-1.724259z" fill="#2f2e41"/><path d="m48.8909251 91.2333333s-2.8646995 8.8722787-.0592054 18.9052767l2.8554601 12.018408.7086667 26.592982 5.782307-1.859993 2.3557553-40.562124 10.8507488 18.45684-5.7109202 22.105284 6.5675587.214615 7.0920372-23.905948-6.2353885-22.307691-1.1421856-5.4368974z" fill="#2f2e41"/><path d="m72.0870886 61.3932924-5.7198137-3.2980257-9.8952745-.5786-6.8637844 3.6451842 2.7893912 19.3582718s-5.3200284 7.7236951-3.3803957 12.8697912c2.3939833 6.3515361 23.3278488 9.6650321 22.9183784 3.4664565-.6461865-9.7819565-1.644064-9.1073023-2.3756862-13.904112-.8027847-5.2633271 4.8150963-12.0120549 4.8150963-12.0120549z" fill="#cbcbcb"/><path d="m51.5666667 62.2816135-.6648223-2.7816135s-2.8361425.3544421-4.8016447 5.6546382c-1.9655022 5.3001962-5.4593801 16.4731255-5.4593801 16.4731255l.1824661 4.0590495s-1.3464664 1.5019868-.4174762 2.1879575c.9289903.6859708-1.6781285 1.6160919-.3578348 2.5910026 1.1841039.875791 1.7257298 2.3408583 1.3836001 3.74256l4.0554552-1.2091426-.2981883-6.3911224 1.6067028-5.0378745 4.2940099-12.6095452z" fill="#cbcbcb"/><path d="m70.4991834 63.2754815.8422674-2.7380359s1.5511343-.6671609 2.6961329 3.0923323c1.1449986 3.7594933 1.6884539 13.2731816 1.6884539 13.2731816l2.2241878 11.3403538s.8311045 1.4442574.3892356 1.8582915c-.4418689.4140342 1.9408769.9960842.5560463 1.7629982-1.3848305.766914.1194274-.1651802-.3980098 1.5834344-.3398366 1.1484587.0087742 1.7519626.0087742 1.7519626l-4.2815819-.9053199-1.1677069-5.8131232-2.6486496-10.8078793z" fill="#cbcbcb"/><circle cx="61.483333" cy="46.608333" fill="#2f2e41" r="7.933333"/><path d="m60.4916667 42.2249125c-1.6369581-1.7091223-3.6178938-3.0280224-5.8033422-3.8638449-1.4028431-.5350897-2.9297601-.8656921-4.3963714-.5618075-1.4666589.3038691-2.8536133 1.3485017-3.2627749 2.8300753-.334564 1.2115004.0108846 2.5159145.5301397 3.6563563.5192049 1.1404417 1.2124247 2.1979795 1.6323077 3.3809835.870445 2.4524144.4773566 5.1916933-1.0447073 7.2801563-1.5220639 2.0884631-3.9666366 3.2428118-6.4969183 3.0679021 1.4410206.1989395 2.7693691.8961687 4.1778866 1.2672988 1.4085176.3711302 3.0709656.3459532 4.1176814-.6930076 1.1074885-1.0992495 1.1296719-2.8865121 1.0761203-4.469396-.0796041-2.3529892-.1592075-4.7059878-.23881-7.0589959-.0406031-1.199986-.0752705-2.4384291.3450871-3.558448.4203048-1.1200189 1.4191962-2.100777 2.5853433-2.0905785.8838466.0077168 1.6661089.5589948 2.3748583 1.1026491.7088499.5436621 1.4590235 1.1236846 2.3394126 1.2045411.8803363.080872 1.8855225-.5899212 1.8196426-1.4974025z" fill="#2f2e41"/><circle cx="62.01278" cy="49.718015" fill="#ffb7b7" r="5.678283" transform="matrix(.47966048 -.87745417 .87745417 .47966048 -11.35758 80.28362)"/><path d="m70.4083333 49.5833333h-8.4893102l-.0870829-1.1220806-.4352559 1.1220806h-1.3071727l-.1725102-2.2239357-.8626852 2.2239357h-2.5293162v-.1101799c.0039282-3.2237283 2.8415653-5.8361809 6.3431928-5.8398201h1.1968977c3.5016362.0036378 6.3392885 2.6160838 6.3432428 5.8398201z" fill="#2f2e41"/><path d="m58.2167364 53.55-3.1447719-3.0857618-.5302978-6.8309049h6.9416666l-.1718553.1681873c-2.3911337 2.3407115-4.9725769 5.7756809-3.0947416 9.7484794z" fill="#2f2e41"/><path d="m96.9295909 153.708333h-96.67584851c-.14013805 0-.25374239-.221992-.25374239-.495833s.11360434-.495833.25374239-.495833h96.67584851c.1401381 0 .2537424.221992.2537424.495833s-.1136043.495833-.2537424.495833z" fill="#cbcbcb"/></g></g></svg>